<?xml version="1.0" standalone="no"?>
<!DOCTYPE svg PUBLIC "-//W3C//DTD SVG 20010904//EN"
 "http://www.w3.org/TR/2001/REC-SVG-20010904/DTD/svg10.dtd">
<svg version="1.0" xmlns="http://www.w3.org/2000/svg"
 width="1280.000000pt" height="743.000000pt" viewBox="0 0 1280.000000 743.000000"
 preserveAspectRatio="xMidYMid meet">
<metadata>
Created by potrace 1.15, written by Peter Selinger 2001-2017
</metadata>
<g transform="translate(0.000000,743.000000) scale(0.100000,-0.100000)"
fill="#ffffff" stroke="none">
<path d="M10278 7138 c-81 -102 -1135 -1439 -1156 -1466 -12 -16 -20 -13 -100
31 -290 160 -720 361 -1022 477 -1274 492 -2482 577 -3625 255 -473 -134 -990
-374 -1410 -655 -869 -581 -1579 -1404 -2080 -2409 -424 -851 -661 -1753 -682
-2597 l-6 -242 24 -13 c20 -12 247 -14 1332 -14 l1309 0 19 24 c17 20 19 42
21 175 l2 151 6 -140 5 -140 9 70 c6 39 10 72 11 75 1 3 5 50 9 105 4 55 11
123 16 150 16 88 30 169 34 195 15 93 70 301 123 460 107 323 264 641 438 888
30 42 60 86 67 96 76 114 320 380 483 526 173 155 450 340 646 432 235 111
483 198 664 232 257 50 426 65 655 61 149 -2 142 10 -10 16 -61 2 -62 3 -16 6
27 3 108 -3 180 -12 330 -40 667 -133 1016 -282 90 -39 238 -109 248 -118 5
-4 -74 -105 -633 -806 -250 -314 -455 -579 -455 -589 0 -9 8 -24 18 -33 28
-25 -47 -10 4112 -837 861 -171 1596 -317 1634 -325 74 -15 112 -8 123 22 9
24 8 28 -227 818 -21 72 -64 214 -94 318 -31 103 -81 270 -111 372 -30 102
-80 268 -110 370 -30 102 -80 268 -110 370 -30 102 -80 268 -110 370 -30 102
-80 269 -111 373 -30 103 -73 246 -94 317 -21 72 -64 214 -94 318 -31 103 -81
270 -111 372 -30 102 -80 268 -110 370 -30 102 -79 267 -109 368 -30 100 -86
288 -124 417 -39 129 -94 314 -122 410 -103 345 -218 718 -229 739 -8 14 -21
21 -41 21 -25 0 -40 -14 -102 -92z m-4355 -3245 c-29 -2 -77 -2 -105 0 -29 2
-6 3 52 3 58 0 81 -1 53 -3z m-260 -10 c-13 -2 -35 -2 -50 0 -16 2 -5 4 22 4
28 0 40 -2 28 -4z m-110 -10 c-7 -2 -19 -2 -25 0 -7 3 -2 5 12 5 14 0 19 -2
13 -5z m-90 -10 c-7 -2 -19 -2 -25 0 -7 3 -2 5 12 5 14 0 19 -2 13 -5z m-56
-9 c-3 -3 -12 -4 -19 -1 -8 3 -5 6 6 6 11 1 17 -2 13 -5z m-60 -10 c-3 -3 -12
-4 -19 -1 -8 3 -5 6 6 6 11 1 17 -2 13 -5z m-2370 -2496 c-3 -8 -6 -5 -6 6 -1
11 2 17 5 13 3 -3 4 -12 1 -19z m-20 -110 c-3 -8 -6 -5 -6 6 -1 11 2 17 5 13
3 -3 4 -12 1 -19z m-10 -60 c-3 -8 -6 -5 -6 6 -1 11 2 17 5 13 3 -3 4 -12 1
-19z m-10 -70 c-3 -7 -5 -2 -5 12 0 14 2 19 5 13 2 -7 2 -19 0 -25z m-10 -95
c-3 -10 -5 -4 -5 12 0 17 2 24 5 18 2 -7 2 -21 0 -30z m-10 -100 c-2 -16 -4
-5 -4 22 0 28 2 40 4 28 2 -13 2 -35 0 -50z"/>
<path d="M6253 3853 c9 -2 25 -2 35 0 9 3 1 5 -18 5 -19 0 -27 -2 -17 -5z"/>
<path d="M6328 3843 c7 -3 16 -2 19 1 4 3 -2 6 -13 5 -11 0 -14 -3 -6 -6z"/>
<path d="M665 480 c39 -4 507 -8 1040 -8 534 0 1002 4 1040 8 39 4 -429 7
-1040 7 -610 0 -1078 -3 -1040 -7z"/>
</g>
</svg>
